<svg xmlns="http://www.w3.org/2000/svg" width="1152" height="3722" viewBox="0 0 1152 3722">

    <defs>
      <linearGradient id="cardFill" x1="0%" y1="0%" x2="100%" y2="100%">
        <stop offset="0%" stop-color="#fffaf4"/>
        <stop offset="100%" stop-color="#f7efe5"/>
      </linearGradient>
      <linearGradient id="diamondFill" x1="0%" y1="0%" x2="100%" y2="100%">
        <stop offset="0%" stop-color="#f5ede4"/>
        <stop offset="100%" stop-color="#f0dfd0"/>
      </linearGradient>
      <filter id="softShadow" x="-20%" y="-20%" width="140%" height="160%">
        <feDropShadow dx="0" dy="10" stdDeviation="10" flood-color="#253143" flood-opacity="0.14"/>
      </filter>
      <marker id="arrow" viewBox="0 0 10 10" refX="9" refY="5" markerWidth="10" markerHeight="10" orient="auto-start-reverse">
        <path d="M 0 0 L 10 5 L 0 10 z" fill="#7c4f3f"/>
      </marker>
    </defs>
    
<rect width="1152" height="3722" rx="30" fill="#fcf7f1"/>
<text x="576.0" y="44" text-anchor="middle" font-size="22" font-family="Microsoft YaHei UI, Noto Sans SC, sans-serif" fill="#253143" font-weight="700">个人疗养服务</text>
<path d="M 186.0 124.0 C 186.0 241.0, 178.0 241.0, 178.0 358.0" fill="none" stroke="#7c4f3f" stroke-width="3.5" marker-end="url(#arrow)" stroke-linecap="round"/>
<path d="M 178.0 442.0 C 178.0 560.0, 170.0 560.0, 170.0 678.0" fill="none" stroke="#7c4f3f" stroke-width="3.5" marker-end="url(#arrow)" stroke-linecap="round"/>
<path d="M 170.0 762.0 C 170.0 880.0, 170.0 880.0, 170.0 998.0" fill="none" stroke="#7c4f3f" stroke-width="3.5" marker-end="url(#arrow)" stroke-linecap="round"/>
<path d="M 170.0 1082.0 C 170.0 1199.0, 186.0 1199.0, 186.0 1316.0" fill="none" stroke="#7c4f3f" stroke-width="3.5" marker-end="url(#arrow)" stroke-linecap="round"/>
<path d="M 186.0 1404.0 C 186.0 1520.0, 186.0 1520.0, 186.0 1636.0" fill="none" stroke="#7c4f3f" stroke-width="3.5" marker-end="url(#arrow)" stroke-linecap="round"/>
<path d="M 186.0 1724.0 C 186.0 1838.0, 165.0 1838.0, 165.0 1952.0" fill="none" stroke="#7c4f3f" stroke-width="3.5" marker-end="url(#arrow)" stroke-linecap="round"/>
<path d="M 165.0 2048.0 C 165.0 2163.0, 178.0 2163.0, 178.0 2278.0" fill="none" stroke="#7c4f3f" stroke-width="3.5" marker-end="url(#arrow)" stroke-linecap="round"/>
<g transform="translate(105.5,2137.0)"><rect width="132" height="32" rx="16" fill="#ffffff" stroke="#d5c3b5" stroke-width="1.5"/><text x="66.0" y="21" text-anchor="middle" font-size="15" font-family="Microsoft YaHei UI, Noto Sans SC, sans-serif" fill="#7c4f3f" font-weight="700">员工还在考虑</text></g>
<path d="M 165.0 2048.0 C 165.0 2163.0, 430.0 2163.0, 430.0 2278.0" fill="none" stroke="#7c4f3f" stroke-width="3.5" marker-end="url(#arrow)" stroke-linecap="round"/>
<g transform="translate(249.5,2137.0)"><rect width="96" height="32" rx="16" fill="#ffffff" stroke="#d5c3b5" stroke-width="1.5"/><text x="48.0" y="21" text-anchor="middle" font-size="15" font-family="Microsoft YaHei UI, Noto Sans SC, sans-serif" fill="#7c4f3f" font-weight="700">员工放弃</text></g>
<path d="M 165.0 2048.0 C 165.0 2163.0, 674.0 2163.0, 674.0 2278.0" fill="none" stroke="#7c4f3f" stroke-width="3.5" marker-end="url(#arrow)" stroke-linecap="round"/>
<g transform="translate(353.5,2137.0)"><rect width="132" height="32" rx="16" fill="#ffffff" stroke="#d5c3b5" stroke-width="1.5"/><text x="66.0" y="21" text-anchor="middle" font-size="15" font-family="Microsoft YaHei UI, Noto Sans SC, sans-serif" fill="#7c4f3f" font-weight="700">员工主动撤销</text></g>
<path d="M 165.0 2048.0 C 165.0 2163.0, 918.0 2163.0, 918.0 2278.0" fill="none" stroke="#7c4f3f" stroke-width="3.5" marker-end="url(#arrow)" stroke-linecap="round"/>
<g transform="translate(493.5,2137.0)"><rect width="96" height="32" rx="16" fill="#ffffff" stroke="#d5c3b5" stroke-width="1.5"/><text x="48.0" y="21" text-anchor="middle" font-size="15" font-family="Microsoft YaHei UI, Noto Sans SC, sans-serif" fill="#7c4f3f" font-weight="700">确认要去</text></g>
<path d="M 918.0 2362.0 C 918.0 2479.0, 186.0 2479.0, 186.0 2596.0" fill="none" stroke="#7c4f3f" stroke-width="3.5" marker-end="url(#arrow)" stroke-linecap="round"/>
<path d="M 186.0 2684.0 C 186.0 2801.0, 178.0 2801.0, 178.0 2918.0" fill="none" stroke="#7c4f3f" stroke-width="3.5" marker-end="url(#arrow)" stroke-linecap="round"/>
<path d="M 178.0 3002.0 C 178.0 3120.0, 170.0 3120.0, 170.0 3238.0" fill="none" stroke="#7c4f3f" stroke-width="3.5" marker-end="url(#arrow)" stroke-linecap="round"/>
<path d="M 170.0 3322.0 C 170.0 3440.0, 178.0 3440.0, 178.0 3558.0" fill="none" stroke="#7c4f3f" stroke-width="3.5" marker-end="url(#arrow)" stroke-linecap="round"/>
<rect x="80.0" y="36.0" width="212" height="88" rx="22" fill="url(#cardFill)" stroke="#d7c4b2" stroke-width="2" filter="url(#softShadow)"/>
<text x="186.0" y="68" text-anchor="middle" dominant-baseline="middle" font-size="18" font-family="Microsoft YaHei UI, Noto Sans SC, sans-serif" fill="#253143" font-weight="600">员工浏览个人疗养服务</text>
<text x="186.0" y="92" text-anchor="middle" dominant-baseline="middle" font-size="18" font-family="Microsoft YaHei UI, Noto Sans SC, sans-serif" fill="#253143" font-weight="600">方案</text>
<rect x="80.0" y="358.0" width="196" height="84" rx="22" fill="url(#cardFill)" stroke="#d7c4b2" stroke-width="2" filter="url(#softShadow)"/>
<text x="178.0" y="400" text-anchor="middle" dominant-baseline="middle" font-size="18" font-family="Microsoft YaHei UI, Noto Sans SC, sans-serif" fill="#253143" font-weight="600">选择感兴趣的方案</text>
<rect x="80.0" y="678.0" width="180" height="84" rx="22" fill="url(#cardFill)" stroke="#d7c4b2" stroke-width="2" filter="url(#softShadow)"/>
<text x="170.0" y="720" text-anchor="middle" dominant-baseline="middle" font-size="18" font-family="Microsoft YaHei UI, Noto Sans SC, sans-serif" fill="#253143" font-weight="600">提交出行意向</text>
<rect x="80.0" y="998.0" width="180" height="84" rx="22" fill="url(#cardFill)" stroke="#d7c4b2" stroke-width="2" filter="url(#softShadow)"/>
<text x="170.0" y="1040" text-anchor="middle" dominant-baseline="middle" font-size="18" font-family="Microsoft YaHei UI, Noto Sans SC, sans-serif" fill="#253143" font-weight="600">系统记录意向</text>
<rect x="80.0" y="1316.0" width="212" height="88" rx="22" fill="url(#cardFill)" stroke="#d7c4b2" stroke-width="2" filter="url(#softShadow)"/>
<text x="186.0" y="1348" text-anchor="middle" dominant-baseline="middle" font-size="18" font-family="Microsoft YaHei UI, Noto Sans SC, sans-serif" fill="#253143" font-weight="600">工作人员在后台看到新</text>
<text x="186.0" y="1372" text-anchor="middle" dominant-baseline="middle" font-size="18" font-family="Microsoft YaHei UI, Noto Sans SC, sans-serif" fill="#253143" font-weight="600">意向</text>
<rect x="80.0" y="1636.0" width="212" height="88" rx="22" fill="url(#cardFill)" stroke="#d7c4b2" stroke-width="2" filter="url(#softShadow)"/>
<text x="186.0" y="1668" text-anchor="middle" dominant-baseline="middle" font-size="18" font-family="Microsoft YaHei UI, Noto Sans SC, sans-serif" fill="#253143" font-weight="600">工作人员线下联系员工</text>
<text x="186.0" y="1692" text-anchor="middle" dominant-baseline="middle" font-size="18" font-family="Microsoft YaHei UI, Noto Sans SC, sans-serif" fill="#253143" font-weight="600">或集团</text>
<polygon points="165.0,1952.0 250.0,2000 165.0,2048.0 80.0,2000" fill="url(#diamondFill)" stroke="#b67a66" stroke-width="2.5" filter="url(#softShadow)"/>
<text x="165.0" y="2000" text-anchor="middle" dominant-baseline="middle" font-size="18" font-family="Microsoft YaHei UI, Noto Sans SC, sans-serif" fill="#253143" font-weight="600">沟通结果</text>
<rect x="80.0" y="2278.0" width="196" height="84" rx="22" fill="url(#cardFill)" stroke="#d7c4b2" stroke-width="2" filter="url(#softShadow)"/>
<text x="178.0" y="2320" text-anchor="middle" dominant-baseline="middle" font-size="18" font-family="Microsoft YaHei UI, Noto Sans SC, sans-serif" fill="#253143" font-weight="600">保留意向，添加备注</text>
<rect x="340.0" y="2278.0" width="180" height="84" rx="22" fill="url(#cardFill)" stroke="#d7c4b2" stroke-width="2" filter="url(#softShadow)"/>
<text x="430.0" y="2320" text-anchor="middle" dominant-baseline="middle" font-size="18" font-family="Microsoft YaHei UI, Noto Sans SC, sans-serif" fill="#253143" font-weight="600">关闭意向</text>
<rect x="584.0" y="2278.0" width="180" height="84" rx="22" fill="url(#cardFill)" stroke="#d7c4b2" stroke-width="2" filter="url(#softShadow)"/>
<text x="674.0" y="2320" text-anchor="middle" dominant-baseline="middle" font-size="18" font-family="Microsoft YaHei UI, Noto Sans SC, sans-serif" fill="#253143" font-weight="600">撤销意向</text>
<rect x="828.0" y="2278.0" width="180" height="84" rx="22" fill="url(#cardFill)" stroke="#d7c4b2" stroke-width="2" filter="url(#softShadow)"/>
<text x="918.0" y="2320" text-anchor="middle" dominant-baseline="middle" font-size="18" font-family="Microsoft YaHei UI, Noto Sans SC, sans-serif" fill="#253143" font-weight="600">转为待确认订单</text>
<rect x="80.0" y="2596.0" width="212" height="88" rx="22" fill="url(#cardFill)" stroke="#d7c4b2" stroke-width="2" filter="url(#softShadow)"/>
<text x="186.0" y="2628" text-anchor="middle" dominant-baseline="middle" font-size="18" font-family="Microsoft YaHei UI, Noto Sans SC, sans-serif" fill="#253143" font-weight="600">继续确认交通、住宿、</text>
<text x="186.0" y="2652" text-anchor="middle" dominant-baseline="middle" font-size="18" font-family="Microsoft YaHei UI, Noto Sans SC, sans-serif" fill="#253143" font-weight="600">时间、额度等细节</text>
<rect x="80.0" y="2918.0" width="196" height="84" rx="22" fill="url(#cardFill)" stroke="#d7c4b2" stroke-width="2" filter="url(#softShadow)"/>
<text x="178.0" y="2960" text-anchor="middle" dominant-baseline="middle" font-size="18" font-family="Microsoft YaHei UI, Noto Sans SC, sans-serif" fill="#253143" font-weight="600">确认后生成正式订单</text>
<rect x="80.0" y="3238.0" width="180" height="84" rx="22" fill="url(#cardFill)" stroke="#d7c4b2" stroke-width="2" filter="url(#softShadow)"/>
<text x="170.0" y="3280" text-anchor="middle" dominant-baseline="middle" font-size="18" font-family="Microsoft YaHei UI, Noto Sans SC, sans-serif" fill="#253143" font-weight="600">记录额度使用</text>
<rect x="80.0" y="3558.0" width="196" height="84" rx="22" fill="url(#cardFill)" stroke="#d7c4b2" stroke-width="2" filter="url(#softShadow)"/>
<text x="178.0" y="3600" text-anchor="middle" dominant-baseline="middle" font-size="18" font-family="Microsoft YaHei UI, Noto Sans SC, sans-serif" fill="#253143" font-weight="600">后续跟进服务进度</text>
</svg>