<svg xmlns="http://www.w3.org/2000/svg" width="1660" height="460" viewBox="0 0 1660 460">

    <defs>
      <linearGradient id="cardFill" x1="0%" y1="0%" x2="100%" y2="100%">
        <stop offset="0%" stop-color="#fffaf4"/>
        <stop offset="100%" stop-color="#f7efe5"/>
      </linearGradient>
      <linearGradient id="diamondFill" x1="0%" y1="0%" x2="100%" y2="100%">
        <stop offset="0%" stop-color="#f5ede4"/>
        <stop offset="100%" stop-color="#f0dfd0"/>
      </linearGradient>
      <filter id="softShadow" x="-20%" y="-20%" width="140%" height="160%">
        <feDropShadow dx="0" dy="10" stdDeviation="10" flood-color="#253143" flood-opacity="0.14"/>
      </filter>
      <marker id="arrow" viewBox="0 0 10 10" refX="9" refY="5" markerWidth="10" markerHeight="10" orient="auto-start-reverse">
        <path d="M 0 0 L 10 5 L 0 10 z" fill="#7c4f3f"/>
      </marker>
    </defs>
    
<rect width="1660" height="460" rx="30" fill="#fcf7f1"/>
<text x="830.0" y="44" text-anchor="middle" font-size="22" font-family="Microsoft YaHei UI, Noto Sans SC, sans-serif" fill="#253143" font-weight="700">个人订单与团体项目的区别</text>
<path d="M 170.0 122.0 C 315.0 122.0, 315.0 122.0, 460.0 122.0" fill="none" stroke="#7c4f3f" stroke-width="3.5" marker-end="url(#arrow)" stroke-linecap="round"/>
<path d="M 640.0 122.0 C 785.0 122.0, 785.0 122.0, 930.0 122.0" fill="none" stroke="#7c4f3f" stroke-width="3.5" marker-end="url(#arrow)" stroke-linecap="round"/>
<path d="M 1110.0 122.0 C 1255.0 122.0, 1255.0 122.0, 1400.0 122.0" fill="none" stroke="#7c4f3f" stroke-width="3.5" marker-end="url(#arrow)" stroke-linecap="round"/>
<path d="M 170.0 270.0 C 311.0 270.0, 311.0 270.0, 452.0 270.0" fill="none" stroke="#7c4f3f" stroke-width="3.5" marker-end="url(#arrow)" stroke-linecap="round"/>
<path d="M 648.0 270.0 C 781.0 270.0, 781.0 272.0, 914.0 272.0" fill="none" stroke="#7c4f3f" stroke-width="3.5" marker-end="url(#arrow)" stroke-linecap="round"/>
<path d="M 1126.0 272.0 C 1263.0 272.0, 1263.0 270.0, 1400.0 270.0" fill="none" stroke="#7c4f3f" stroke-width="3.5" marker-end="url(#arrow)" stroke-linecap="round"/>
<rect x="-10.0" y="80.0" width="180" height="84" rx="22" fill="url(#cardFill)" stroke="#d7c4b2" stroke-width="2" filter="url(#softShadow)"/>
<text x="80" y="122.0" text-anchor="middle" dominant-baseline="middle" font-size="18" font-family="Microsoft YaHei UI, Noto Sans SC, sans-serif" fill="#253143" font-weight="600">员工个人出行</text>
<rect x="460.0" y="80.0" width="180" height="84" rx="22" fill="url(#cardFill)" stroke="#d7c4b2" stroke-width="2" filter="url(#softShadow)"/>
<text x="550" y="122.0" text-anchor="middle" dominant-baseline="middle" font-size="18" font-family="Microsoft YaHei UI, Noto Sans SC, sans-serif" fill="#253143" font-weight="600">员工提交意向</text>
<rect x="930.0" y="80.0" width="180" height="84" rx="22" fill="url(#cardFill)" stroke="#d7c4b2" stroke-width="2" filter="url(#softShadow)"/>
<text x="1020" y="122.0" text-anchor="middle" dominant-baseline="middle" font-size="18" font-family="Microsoft YaHei UI, Noto Sans SC, sans-serif" fill="#253143" font-weight="600">我们线下沟通</text>
<rect x="1400.0" y="80.0" width="180" height="84" rx="22" fill="url(#cardFill)" stroke="#d7c4b2" stroke-width="2" filter="url(#softShadow)"/>
<text x="1490" y="122.0" text-anchor="middle" dominant-baseline="middle" font-size="18" font-family="Microsoft YaHei UI, Noto Sans SC, sans-serif" fill="#253143" font-weight="600">生成个人订单</text>
<rect x="-10.0" y="228.0" width="180" height="84" rx="22" fill="url(#cardFill)" stroke="#d7c4b2" stroke-width="2" filter="url(#softShadow)"/>
<text x="80" y="270.0" text-anchor="middle" dominant-baseline="middle" font-size="18" font-family="Microsoft YaHei UI, Noto Sans SC, sans-serif" fill="#253143" font-weight="600">集团统一活动</text>
<rect x="452.0" y="228.0" width="196" height="84" rx="22" fill="url(#cardFill)" stroke="#d7c4b2" stroke-width="2" filter="url(#softShadow)"/>
<text x="550" y="270.0" text-anchor="middle" dominant-baseline="middle" font-size="18" font-family="Microsoft YaHei UI, Noto Sans SC, sans-serif" fill="#253143" font-weight="600">集团线下提出需求</text>
<rect x="914.0" y="228.0" width="212" height="88" rx="22" fill="url(#cardFill)" stroke="#d7c4b2" stroke-width="2" filter="url(#softShadow)"/>
<text x="1020" y="260.0" text-anchor="middle" dominant-baseline="middle" font-size="18" font-family="Microsoft YaHei UI, Noto Sans SC, sans-serif" fill="#253143" font-weight="600">我们在后台创建团体项</text>
<text x="1020" y="284.0" text-anchor="middle" dominant-baseline="middle" font-size="18" font-family="Microsoft YaHei UI, Noto Sans SC, sans-serif" fill="#253143" font-weight="600">目</text>
<rect x="1400.0" y="228.0" width="180" height="84" rx="22" fill="url(#cardFill)" stroke="#d7c4b2" stroke-width="2" filter="url(#softShadow)"/>
<text x="1490" y="270.0" text-anchor="middle" dominant-baseline="middle" font-size="18" font-family="Microsoft YaHei UI, Noto Sans SC, sans-serif" fill="#253143" font-weight="600">添加参与员工</text>
</svg>